<?xml version="1.0" encoding="UTF-8" standalone="no"?>
<!-- Created with Inkscape (http://www.inkscape.org/) -->

<svg
   xmlns:dc="http://purl.org/dc/elements/1.1/"
   xmlns:cc="http://creativecommons.org/ns#"
   xmlns:rdf="http://www.w3.org/1999/02/22-rdf-syntax-ns#"
   xmlns:svg="http://www.w3.org/2000/svg"
   xmlns="http://www.w3.org/2000/svg"
   xmlns:xlink="http://www.w3.org/1999/xlink"
   xmlns:sodipodi="http://sodipodi.sourceforge.net/DTD/sodipodi-0.dtd"
   xmlns:inkscape="http://www.inkscape.org/namespaces/inkscape"
   width="390.26501"
   height="364.72699"
   viewBox="0 0 390.26503 364.72699"
   id="svg2"
   version="1.1"
   inkscape:version="0.91 r13725"
   sodipodi:docname="graphic-5.svg">
  <defs
     id="defs4">
    <clipPath
       clipPathUnits="userSpaceOnUse"
       id="clipPath80">
      <path
         d="m 471.224,2000.53 47.741,0 0,-10.23 -47.741,0 0,10.23 z"
         id="path82"
         inkscape:connector-curvature="0" />
    </clipPath>
    <clipPath
       clipPathUnits="userSpaceOnUse"
       id="clipPath96">
      <path
         d="m 524.665,1986.71 83.839,0 0,-17.96 -83.839,0 0,17.96 z"
         id="path98"
         inkscape:connector-curvature="0" />
    </clipPath>
    <clipPath
       clipPathUnits="userSpaceOnUse"
       id="clipPath2632">
      <path
         d="m -39.2676,2045.85 176.2716,0 0,-37.78 -176.2716,0 0,37.78 z"
         id="path2634"
         inkscape:connector-curvature="0" />
    </clipPath>
    <clipPath
       clipPathUnits="userSpaceOnUse"
       id="clipPath2648">
      <path
         d="m 448.711,2119.59 117.353,0 0,-25.15 -117.353,0 0,25.15 z"
         id="path2650"
         inkscape:connector-curvature="0" />
    </clipPath>
    <clipPath
       clipPathUnits="userSpaceOnUse"
       id="clipPath2664">
      <path
         d="m 78.7056,2168.26 117.3534,0 0,-25.15 -117.3534,0 0,25.15 z"
         id="path2666"
         inkscape:connector-curvature="0" />
    </clipPath>
    <clipPath
       clipPathUnits="userSpaceOnUse"
       id="clipPath2680">
      <path
         d="m 247.766,2056.98 59.502,0 0,-12.75 -59.502,0 0,12.75 z"
         id="path2682"
         inkscape:connector-curvature="0" />
    </clipPath>
    <clipPath
       clipPathUnits="userSpaceOnUse"
       id="clipPath150">
      <path
         d="m 384.619,1909.95 147.3,0 0,-89.34 -147.3,0 0,89.34 z"
         id="path152"
         inkscape:connector-curvature="0" />
    </clipPath>
    <clipPath
       clipPathUnits="userSpaceOnUse"
       id="clipPath166">
      <path
         d="m 389.698,1927.26 161.599,0 0,-102.5 -161.599,0 0,102.5 z"
         id="path168"
         inkscape:connector-curvature="0" />
    </clipPath>
    <clipPath
       clipPathUnits="userSpaceOnUse"
       id="clipPath528">
      <path
         d="m 469.139,1892.81 38.988,0 0,-35.46 -38.988,0 0,35.46 z"
         id="path530"
         inkscape:connector-curvature="0" />
    </clipPath>
    <clipPath
       clipPathUnits="userSpaceOnUse"
       id="clipPath900">
      <path
         d="m 67.1227,1496.35 12.2948,0 0,-14.44 -12.2948,0 0,14.44 z"
         id="path902"
         inkscape:connector-curvature="0" />
    </clipPath>
    <clipPath
       clipPathUnits="userSpaceOnUse"
       id="clipPath928">
      <path
         d="m 79.2287,1482.75 12.2949,0 0,-10.54 -12.2949,0 0,10.54 z"
         id="path930"
         inkscape:connector-curvature="0" />
    </clipPath>
    <clipPath
       clipPathUnits="userSpaceOnUse"
       id="clipPath980">
      <path
         d="m 91.2269,1496.28 12.2951,0 0,-10.54 -12.2951,0 0,10.54 z"
         id="path982"
         inkscape:connector-curvature="0" />
    </clipPath>
    <clipPath
       clipPathUnits="userSpaceOnUse"
       id="clipPath1008">
      <path
         d="m 103.009,1482.75 12.294,0 0,-10.54 -12.294,0 0,10.54 z"
         id="path1010"
         inkscape:connector-curvature="0" />
    </clipPath>
    <clipPath
       clipPathUnits="userSpaceOnUse"
       id="clipPath1072">
      <path
         d="m 67.1227,1538.39 12.2948,0 0,-14.43 -12.2948,0 0,14.43 z"
         id="path1074"
         inkscape:connector-curvature="0" />
    </clipPath>
    <clipPath
       clipPathUnits="userSpaceOnUse"
       id="clipPath1100">
      <path
         d="m 79.2287,1524.79 12.2949,0 0,-10.54 -12.2949,0 0,10.54 z"
         id="path1102"
         inkscape:connector-curvature="0" />
    </clipPath>
    <clipPath
       clipPathUnits="userSpaceOnUse"
       id="clipPath1152">
      <path
         d="m 91.2269,1538.32 12.2951,0 0,-10.54 -12.2951,0 0,10.54 z"
         id="path1154"
         inkscape:connector-curvature="0" />
    </clipPath>
    <clipPath
       clipPathUnits="userSpaceOnUse"
       id="clipPath1180">
      <path
         d="m 103.009,1524.79 12.294,0 0,-10.54 -12.294,0 0,10.54 z"
         id="path1182"
         inkscape:connector-curvature="0" />
    </clipPath>
    <clipPath
       clipPathUnits="userSpaceOnUse"
       id="clipPath1244">
      <path
         d="m 67.1227,1580.44 12.2948,0 0,-14.44 -12.2948,0 0,14.44 z"
         id="path1246"
         inkscape:connector-curvature="0" />
    </clipPath>
    <clipPath
       clipPathUnits="userSpaceOnUse"
       id="clipPath1272">
      <path
         d="m 79.2287,1566.84 12.2949,0 0,-10.54 -12.2949,0 0,10.54 z"
         id="path1274"
         inkscape:connector-curvature="0" />
    </clipPath>
    <clipPath
       clipPathUnits="userSpaceOnUse"
       id="clipPath1324">
      <path
         d="m 91.2269,1580.36 12.2951,0 0,-10.54 -12.2951,0 0,10.54 z"
         id="path1326"
         inkscape:connector-curvature="0" />
    </clipPath>
    <clipPath
       clipPathUnits="userSpaceOnUse"
       id="clipPath1352">
      <path
         d="m 103.009,1566.84 12.294,0 0,-10.54 -12.294,0 0,10.54 z"
         id="path1354"
         inkscape:connector-curvature="0" />
    </clipPath>
    <clipPath
       clipPathUnits="userSpaceOnUse"
       id="clipPath900-3">
      <path
         d="m 67.1227,1496.35 12.2948,0 0,-14.44 -12.2948,0 0,14.44 z"
         id="path902-6"
         inkscape:connector-curvature="0" />
    </clipPath>
    <clipPath
       clipPathUnits="userSpaceOnUse"
       id="clipPath928-7">
      <path
         d="m 79.2287,1482.75 12.2949,0 0,-10.54 -12.2949,0 0,10.54 z"
         id="path930-5"
         inkscape:connector-curvature="0" />
    </clipPath>
    <clipPath
       clipPathUnits="userSpaceOnUse"
       id="clipPath980-3">
      <path
         d="m 91.2269,1496.28 12.2951,0 0,-10.54 -12.2951,0 0,10.54 z"
         id="path982-5"
         inkscape:connector-curvature="0" />
    </clipPath>
    <clipPath
       clipPathUnits="userSpaceOnUse"
       id="clipPath1008-6">
      <path
         d="m 103.009,1482.75 12.294,0 0,-10.54 -12.294,0 0,10.54 z"
         id="path1010-2"
         inkscape:connector-curvature="0" />
    </clipPath>
    <clipPath
       clipPathUnits="userSpaceOnUse"
       id="clipPath1072-9">
      <path
         d="m 67.1227,1538.39 12.2948,0 0,-14.43 -12.2948,0 0,14.43 z"
         id="path1074-1"
         inkscape:connector-curvature="0" />
    </clipPath>
    <clipPath
       clipPathUnits="userSpaceOnUse"
       id="clipPath1100-2">
      <path
         d="m 79.2287,1524.79 12.2949,0 0,-10.54 -12.2949,0 0,10.54 z"
         id="path1102-7"
         inkscape:connector-curvature="0" />
    </clipPath>
    <clipPath
       clipPathUnits="userSpaceOnUse"
       id="clipPath1152-0">
      <path
         d="m 91.2269,1538.32 12.2951,0 0,-10.54 -12.2951,0 0,10.54 z"
         id="path1154-9"
         inkscape:connector-curvature="0" />
    </clipPath>
    <clipPath
       clipPathUnits="userSpaceOnUse"
       id="clipPath1180-3">
      <path
         d="m 103.009,1524.79 12.294,0 0,-10.54 -12.294,0 0,10.54 z"
         id="path1182-6"
         inkscape:connector-curvature="0" />
    </clipPath>
    <clipPath
       clipPathUnits="userSpaceOnUse"
       id="clipPath1244-0">
      <path
         d="m 67.1227,1580.44 12.2948,0 0,-14.44 -12.2948,0 0,14.44 z"
         id="path1246-6"
         inkscape:connector-curvature="0" />
    </clipPath>
    <clipPath
       clipPathUnits="userSpaceOnUse"
       id="clipPath1272-2">
      <path
         d="m 79.2287,1566.84 12.2949,0 0,-10.54 -12.2949,0 0,10.54 z"
         id="path1274-6"
         inkscape:connector-curvature="0" />
    </clipPath>
    <clipPath
       clipPathUnits="userSpaceOnUse"
       id="clipPath1324-1">
      <path
         d="m 91.2269,1580.36 12.2951,0 0,-10.54 -12.2951,0 0,10.54 z"
         id="path1326-8"
         inkscape:connector-curvature="0" />
    </clipPath>
    <clipPath
       clipPathUnits="userSpaceOnUse"
       id="clipPath1352-7">
      <path
         d="m 103.009,1566.84 12.294,0 0,-10.54 -12.294,0 0,10.54 z"
         id="path1354-9"
         inkscape:connector-curvature="0" />
    </clipPath>
    <clipPath
       clipPathUnits="userSpaceOnUse"
       id="clipPath2028">
      <path
         d="m 23.322,901.715 317.174,0 0,203.501 -317.174,0 0,-203.501 z"
         id="path2030"
         inkscape:connector-curvature="0" />
    </clipPath>
    <clipPath
       clipPathUnits="userSpaceOnUse"
       id="clipPath1522">
      <path
         d="m 569.122,665.336 c -3.744,-1.143 -6.744,-3.948 -9.265,-6.94 l 0,0 c -2.522,-2.994 -4.727,-6.279 -7.624,-8.913 l 0,0 c -3.799,-3.45 -8.831,-5.853 -11.162,-10.425 l 0,0 c -2.497,-4.9 -1.247,-11.171 -4.133,-15.852 l 0,0 c -2.425,-3.935 -7.135,-5.735 -10.602,-8.794 l 0,0 c -5.013,-4.422 -7.207,-11.793 -5.429,-18.238 l 0,0 c 1.779,-6.445 6.558,-13.189 13.129,-14.416 l 0,0 c 4.767,-6.29 13.641,-9.121 21.17,-6.752 l 0,0 c 7.526,2.37 13.181,9.772 13.485,17.659 l 0,0 c 0.128,3.313 -0.572,6.797 0.742,9.843 l 0,0 c 2.1,4.879 8.388,6.553 11.305,10.992 l 0,0 c 2.785,4.242 1.822,9.885 0.169,14.683 l 0,0 c -1.652,4.8 -3.928,9.638 -3.453,14.693 l 0,0 c 0.314,3.343 1.817,6.441 2.762,9.661 l 0,0 c 0.948,3.222 1.272,6.934 -0.582,9.733 l 0,0 c -1.58,2.383 -4.463,3.53 -7.362,3.53 l 0,0 c -1.069,0 -2.141,-0.156 -3.15,-0.464"
         id="path1524"
         inkscape:connector-curvature="0" />
    </clipPath>
    <linearGradient
       x1="0"
       y1="0"
       x2="1"
       y2="0"
       gradientUnits="userSpaceOnUse"
       gradientTransform="matrix(62.203209,0,0,-62.203209,520.29681,619.98749)"
       spreadMethod="pad"
       id="linearGradient1530">
      <stop
         style="stop-opacity:1;stop-color:#99d2aa"
         offset="0"
         id="stop1532" />
      <stop
         style="stop-opacity:1;stop-color:#6cc5a6"
         offset="1"
         id="stop1534" />
    </linearGradient>
    <clipPath
       clipPathUnits="userSpaceOnUse"
       id="clipPath2248">
      <path
         d="m 316.012,622.07 c -14.913,-7.101 -24.588,-26.299 -24.033,-43.11 l 0,0 259.194,0.081 c -1.336,11.793 -5.641,21.796 -14.218,29.795 l 0,0 c -8.579,8.001 -21.591,11.507 -32.277,6.864 l 0,0 c -10.777,-4.682 -18.584,-16.814 -30.286,-17.185 l 0,0 c -6.207,-0.195 -12.081,3.13 -18.286,3.291 l 0,0 c -3.852,0.099 -7.627,-1.02 -11.383,-2.139 l 0,0 c -4.516,-1.344 -9.006,-2.69 -13.575,-1.917 l 0,0 c -11.302,1.907 -18.752,16.045 -30.187,15.372 l 0,0 c -8.57,-0.504 -15.451,-9.521 -23.982,-8.523 l 0,0 c -6.088,0.713 -10.328,6.227 -14.883,10.42 l 0,0 c -7.752,7.134 -18.201,10.91 -28.612,10.91 l 0,0 c -6.012,0 -12.012,-1.259 -17.472,-3.859"
         id="path2250"
         inkscape:connector-curvature="0" />
    </clipPath>
    <mask
       maskUnits="userSpaceOnUse"
       x="0"
       y="0"
       width="1"
       height="1"
       id="mask2268">
      <g
         id="g2270">
        <g
           clip-path="url(#clipPath2256)"
           id="g2272">
          <g
             id="g2274">
            <g
               id="g2276">
              <path
                 d="m -32768,32767 65535,0 0,-65535 -65535,0 0,65535 z"
                 style="fill:url(#linearGradient2260);stroke:none"
                 id="path2278"
                 inkscape:connector-curvature="0" />
            </g>
          </g>
        </g>
      </g>
    </mask>
    <clipPath
       clipPathUnits="userSpaceOnUse"
       id="clipPath2256">
      <path
         d="m -32768,32767 65535,0 0,-65535 -65535,0 0,65535 z"
         id="path2258"
         inkscape:connector-curvature="0" />
    </clipPath>
    <linearGradient
       x1="0"
       y1="0"
       x2="1"
       y2="0"
       gradientUnits="userSpaceOnUse"
       gradientTransform="matrix(-2.97804,-52.115505,-52.115505,2.97804,424.92087,639.05151)"
       spreadMethod="pad"
       id="linearGradient2260">
      <stop
         style="stop-opacity:0;stop-color:#ffffff"
         offset="0"
         id="stop2262" />
      <stop
         style="stop-opacity:1;stop-color:#ffffff"
         offset="0.998601"
         id="stop2264" />
      <stop
         style="stop-opacity:1;stop-color:#ffffff"
         offset="1"
         id="stop2266" />
    </linearGradient>
    <clipPath
       clipPathUnits="userSpaceOnUse"
       id="clipPath2298">
      <path
         d="m 0,2176.962 595.276,0 L 595.276,0 0,0 0,2176.962 Z"
         id="path2300"
         inkscape:connector-curvature="0" />
    </clipPath>
    <clipPath
       clipPathUnits="userSpaceOnUse"
       id="clipPath2306">
      <path
         d="m 297.79,645.159 253.405,0 0,-66.118 -253.405,0 0,66.118 z"
         id="path2308"
         inkscape:connector-curvature="0" />
    </clipPath>
    <clipPath
       clipPathUnits="userSpaceOnUse"
       id="clipPath2310">
      <path
         d="m 551.173,579.041 c 0.544,22.843 -8.71,51.226 -23.29,60.874 -14.58,9.649 -33.095,5.712 -45.047,-9.58 -4.453,-5.697 -8.598,-13.189 -14.55,-14.156 -8.338,-1.358 -15.064,10.892 -23.443,11.579 -11.176,0.914 -18.46,-18.296 -29.505,-20.888 -8.184,-1.92 -16.106,5.81 -24.397,5.512 -6.067,-0.219 -11.809,-4.736 -17.876,-4.471 -11.441,0.503 -19.071,16.988 -29.606,23.35 -10.445,6.307 -23.165,1.544 -31.551,-9.325 -8.386,-10.87 -12.813,-26.873 -14.118,-42.895 l 253.383,0 z"
         id="path2312"
         inkscape:connector-curvature="0" />
    </clipPath>
    <mask
       maskUnits="userSpaceOnUse"
       x="0"
       y="0"
       width="1"
       height="1"
       id="mask2326">
      <g
         id="g2328">
        <g
           clip-path="url(#clipPath2314)"
           id="g2330">
          <g
             id="g2332">
            <g
               id="g2334">
              <path
                 d="m -32768,32767 65535,0 0,-65535 -65535,0 0,65535 z"
                 style="fill:url(#linearGradient2318);stroke:none"
                 id="path2336"
                 inkscape:connector-curvature="0" />
            </g>
          </g>
        </g>
      </g>
    </mask>
    <clipPath
       clipPathUnits="userSpaceOnUse"
       id="clipPath2314">
      <path
         d="m -32768,32767 65535,0 0,-65535 -65535,0 0,65535 z"
         id="path2316"
         inkscape:connector-curvature="0" />
    </clipPath>
    <linearGradient
       x1="0"
       y1="0"
       x2="1"
       y2="0"
       gradientUnits="userSpaceOnUse"
       gradientTransform="matrix(253.4057,0,0,-253.4057,297.78955,612.1001)"
       spreadMethod="pad"
       id="linearGradient2318">
      <stop
         style="stop-opacity:0;stop-color:#ffffff"
         offset="0"
         id="stop2320" />
      <stop
         style="stop-opacity:1;stop-color:#ffffff"
         offset="0.998601"
         id="stop2322" />
      <stop
         style="stop-opacity:1;stop-color:#ffffff"
         offset="1"
         id="stop2324" />
    </linearGradient>
    <linearGradient
       x1="0"
       y1="0"
       x2="1"
       y2="0"
       gradientUnits="userSpaceOnUse"
       gradientTransform="matrix(316.75712,0,0,316.75712,34.377167,980.02758)"
       spreadMethod="pad"
       id="linearGradient2338"
       xlink:href="#linearGradient2404">
      <stop
         style="stop-opacity:1;stop-color:#ffffff"
         offset="0"
         id="stop2340" />
      <stop
         style="stop-opacity:1;stop-color:#39b54a"
         offset="0.998601"
         id="stop2342" />
      <stop
         style="stop-opacity:1;stop-color:#39b54a"
         offset="1"
         id="stop2344" />
    </linearGradient>
    <clipPath
       clipPathUnits="userSpaceOnUse"
       id="clipPath2368">
      <path
         d="m 396.283,725.782 -4.556,-149.195 33.819,0 -5.317,150.264 -23.946,-1.069 z"
         id="path2370"
         inkscape:connector-curvature="0" />
    </clipPath>
    <mask
       maskUnits="userSpaceOnUse"
       x="0"
       y="0"
       width="1"
       height="1"
       id="mask2388">
      <g
         id="g2390">
        <g
           clip-path="url(#clipPath2376)"
           id="g2392">
          <g
             id="g2394">
            <g
               id="g2396">
              <path
                 d="m -32768,32767 65535,0 0,-65535 -65535,0 0,65535 z"
                 style="fill:url(#linearGradient2380);stroke:none"
                 id="path2398"
                 inkscape:connector-curvature="0" />
            </g>
          </g>
        </g>
      </g>
    </mask>
    <clipPath
       clipPathUnits="userSpaceOnUse"
       id="clipPath2376">
      <path
         d="m -32768,32767 65535,0 0,-65535 -65535,0 0,65535 z"
         id="path2378"
         inkscape:connector-curvature="0" />
    </clipPath>
    <linearGradient
       x1="0"
       y1="0"
       x2="1"
       y2="0"
       gradientUnits="userSpaceOnUse"
       gradientTransform="matrix(6.6897864,95.32888,95.32888,-6.6897864,405.44077,573.19373)"
       spreadMethod="pad"
       id="linearGradient2380">
      <stop
         style="stop-opacity:0;stop-color:#ffffff"
         offset="0"
         id="stop2382" />
      <stop
         style="stop-opacity:1;stop-color:#ffffff"
         offset="0.998601"
         id="stop2384" />
      <stop
         style="stop-opacity:1;stop-color:#ffffff"
         offset="1"
         id="stop2386" />
    </linearGradient>
    <linearGradient
       x1="0"
       y1="0"
       x2="1"
       y2="0"
       gradientUnits="userSpaceOnUse"
       gradientTransform="matrix(8.362233,-119.1611,119.1611,8.362233,168.94119,1028.6605)"
       spreadMethod="pad"
       id="linearGradient2404">
      <stop
         style="stop-opacity:1;stop-color:#ffffff"
         offset="0"
         id="stop2406" />
      <stop
         style="stop-opacity:1;stop-color:#c1dc7e"
         offset="0.998601"
         id="stop2408" />
      <stop
         style="stop-opacity:1;stop-color:#c1dc7e"
         offset="1"
         id="stop2410" />
    </linearGradient>
    <clipPath
       clipPathUnits="userSpaceOnUse"
       id="clipPath2418">
      <path
         d="m 397.708,731.286 c 0,0 2.365,-27.327 11.458,-32.171 l 0,0 c 0,0 6.978,4.262 10.503,32.171 l 0,0 -21.961,0 z"
         id="path2420"
         inkscape:connector-curvature="0" />
    </clipPath>
    <linearGradient
       x1="0"
       y1="0"
       x2="1"
       y2="0"
       gradientUnits="userSpaceOnUse"
       gradientTransform="matrix(-1.0940198,-31.07053,-31.07053,1.0940198,408.81174,734.78149)"
       spreadMethod="pad"
       id="linearGradient2426">
      <stop
         style="stop-opacity:1;stop-color:#fade57"
         offset="0"
         id="stop2428" />
      <stop
         style="stop-opacity:1;stop-color:#fade57"
         offset="0.0997922"
         id="stop2430" />
      <stop
         style="stop-opacity:1;stop-color:#e86a76"
         offset="1"
         id="stop2432" />
    </linearGradient>
    <clipPath
       clipPathUnits="userSpaceOnUse"
       id="clipPath2440">
      <path
         d="m 0,2176.962 595.276,0 L 595.276,0 0,0 0,2176.962 Z"
         id="path2442"
         inkscape:connector-curvature="0" />
    </clipPath>
    <clipPath
       clipPathUnits="userSpaceOnUse"
       id="clipPath2456">
      <path
         d="m 403.544,843.622 c -8.657,-8.014 -23.59,-27.786 -22.216,-68.083 l 0,0 c 0.089,-2.593 0.473,-5.176 1.124,-7.689 l 0,0 9.479,-36.564 32.712,0 c 0,0 8.364,30.091 10.11,37.769 l 0,0 c 4.461,19.595 -1.872,56.377 -18.823,74.272 l 0,0 c -1.699,1.795 -3.988,2.687 -6.291,2.687 l 0,0 c -2.182,0 -4.376,-0.8 -6.095,-2.392"
         id="path2458"
         inkscape:connector-curvature="0" />
    </clipPath>
    <clipPath
       clipPathUnits="userSpaceOnUse"
       id="clipPath2496">
      <path
         d="m 391.508,733.737 34.618,0 0,-1.456 -34.618,0 0,1.456 z"
         id="path2498"
         inkscape:connector-curvature="0" />
    </clipPath>
    <clipPath
       clipPathUnits="userSpaceOnUse"
       id="clipPath2512">
      <path
         d="m 390.178,736.618 35.45,0 0,-1.382 -35.45,0 0,1.382 z"
         id="path2514"
         inkscape:connector-curvature="0" />
    </clipPath>
    <clipPath
       clipPathUnits="userSpaceOnUse"
       id="clipPath2552">
      <path
         d="m 398.467,797.91 18.172,0 0,-13.233 -18.172,0 0,13.233 z"
         id="path2554"
         inkscape:connector-curvature="0" />
    </clipPath>
    <clipPath
       clipPathUnits="userSpaceOnUse"
       id="clipPath2700">
      <path
         d="m 0,2176.962 595.276,0 L 595.276,0 0,0 0,2176.962 Z"
         id="path2702"
         inkscape:connector-curvature="0" />
    </clipPath>
  </defs>
  <sodipodi:namedview
     id="base"
     pagecolor="#ffffff"
     bordercolor="#666666"
     borderopacity="1.0"
     inkscape:pageopacity="0.0"
     inkscape:pageshadow="2"
     inkscape:zoom="0.98994949"
     inkscape:cx="398.70489"
     inkscape:cy="67.284278"
     inkscape:document-units="px"
     inkscape:current-layer="layer1"
     showgrid="false"
     units="px"
     inkscape:window-width="1920"
     inkscape:window-height="1056"
     inkscape:window-x="1920"
     inkscape:window-y="24"
     inkscape:window-maximized="1" />
  <metadata
     id="metadata7">
    <rdf:RDF>
      <cc:Work
         rdf:about="">
        <dc:format>image/svg+xml</dc:format>
        <dc:type
           rdf:resource="http://purl.org/dc/dcmitype/StillImage" />
        <dc:title></dc:title>
      </cc:Work>
    </rdf:RDF>
  </metadata>
  <g
     inkscape:label="Layer 1"
     inkscape:groupmode="layer"
     id="layer1"
     transform="translate(0,-687.63516)">
    <g
       clip-path="url(#clipPath1522)"
       id="g1520"
       transform="matrix(1.25,0,0,-1.25,-337.85977,1745.1527)">
      <g
         id="g1526">
        <g
           id="g1528">
          <path
             inkscape:connector-curvature="0"
             id="path1536"
             style="fill:url(#linearGradient1530);stroke:none"
             d="m 569.122,665.336 c -3.744,-1.143 -6.744,-3.948 -9.265,-6.94 l 0,0 c -2.522,-2.994 -4.727,-6.279 -7.624,-8.913 l 0,0 c -3.799,-3.45 -8.831,-5.853 -11.162,-10.425 l 0,0 c -2.497,-4.9 -1.247,-11.171 -4.133,-15.852 l 0,0 c -2.425,-3.935 -7.135,-5.735 -10.602,-8.794 l 0,0 c -5.013,-4.422 -7.207,-11.793 -5.429,-18.238 l 0,0 c 1.779,-6.445 6.558,-13.189 13.129,-14.416 l 0,0 c 4.767,-6.29 13.641,-9.121 21.17,-6.752 l 0,0 c 7.526,2.37 13.181,9.772 13.485,17.659 l 0,0 c 0.128,3.313 -0.572,6.797 0.742,9.843 l 0,0 c 2.1,4.879 8.388,6.553 11.305,10.992 l 0,0 c 2.785,4.242 1.822,9.885 0.169,14.683 l 0,0 c -1.652,4.8 -3.928,9.638 -3.453,14.693 l 0,0 c 0.314,3.343 1.817,6.441 2.762,9.661 l 0,0 c 0.948,3.222 1.272,6.934 -0.582,9.733 l 0,0 c -1.58,2.383 -4.463,3.53 -7.362,3.53 l 0,0 c -1.069,0 -2.141,-0.156 -3.15,-0.464" />
        </g>
      </g>
    </g>
    <path
       inkscape:connector-curvature="0"
       id="path1548"
       style="fill:#e2e2e2;fill-opacity:1;fill-rule:nonzero;stroke:none"
       d="m 337.03398,1025.7703 c -0.0312,-0.01 -0.009,-0.375 0.06,-1.0775 0.0638,-0.7038 0.21125,-1.735 0.43625,-3.0588 0.4625,-2.6425 1.3525,-6.435 2.87875,-10.9862 1.50625,-4.5575 3.6625,-9.8475 6.0775,-15.69 2.425,-5.84625 5.08625,-12.27 7.88,-19.01125 5.615,-13.4825 10.74625,-25.66625 14.50125,-34.46875 1.8875,-4.3725 3.4175,-7.91875 4.49125,-10.40375 0.53875,-1.19875 0.96125,-2.14125 1.2625,-2.81125 0.3,-0.63875 0.47,-0.96875 0.5,-0.95625 0.0275,0.0113 -0.0863,0.365 -0.33,1.02625 -0.2625,0.68875 -0.63375,1.6525 -1.105,2.88 -1.00875,2.51 -2.44875,6.095 -4.2225,10.515 -3.6025,8.86375 -8.63625,21.08875 -14.25125,34.57125 -2.8175,6.7325 -5.5025,13.14375 -7.945,18.9825 -2.46125,5.82875 -4.67,11.07125 -6.24625,15.57625 -1.595,4.5 -2.575,8.2375 -3.14,10.8462 -0.27875,1.3038 -0.4825,2.3213 -0.605,3.0151 -0.1275,0.6924 -0.2125,1.055 -0.2425,1.0512" />
    <path
       inkscape:connector-curvature="0"
       id="path1552"
       style="fill:#e2e2e2;fill-opacity:1;fill-rule:nonzero;stroke:none"
       d="m 380.51673,963.92833 c -0.0113,0.15125 -1.55125,0.085 -4.00125,0.31125 -1.22625,0.105 -2.67375,0.33 -4.25625,0.66875 -1.58125,0.365 -3.29375,0.86375 -5.0375,1.5425 -1.735,0.69375 -3.32625,1.50125 -4.73,2.31375 -1.38875,0.83625 -2.59875,1.66 -3.56625,2.42125 -1.94375,1.50875 -3.0225,2.61125 -3.13375,2.50625 -0.0762,-0.065 0.84,-1.33125 2.72125,-3.00625 0.935,-0.84125 2.135,-1.7425 3.54,-2.64125 1.41625,-0.875 3.045,-1.73 4.8325,-2.4475 1.79375,-0.6975 3.5675,-1.185 5.2,-1.515 1.6375,-0.30375 3.13375,-0.465 4.39,-0.48875 2.51625,-0.0625 4.05125,0.23625 4.04125,0.335" />
    <path
       inkscape:connector-curvature="0"
       id="path1556"
       style="fill:#e2e2e2;fill-opacity:1;fill-rule:nonzero;stroke:none"
       d="m 368.40848,994.05158 c -0.004,0.15 -1.495,0.16125 -3.86,0.46875 -1.18125,0.14625 -2.5775,0.40875 -4.1025,0.78 -1.51875,0.39625 -3.16625,0.915 -4.845,1.6 -1.67,0.7025 -3.20375,1.5 -4.55875,2.29625 -1.34125,0.81502 -2.51125,1.61622 -3.45125,2.34872 -1.88875,1.4538 -2.9525,2.5013 -3.06,2.3988 -0.0763,-0.069 0.825,-1.2825 2.64875,-2.8988 0.90625,-0.8137 2.0675,-1.69122 3.42,-2.56747 1.36625,-0.85625 2.9325,-1.70125 4.6525,-2.4225 1.72375,-0.70625 3.4275,-1.21625 5,-1.575 1.5775,-0.33875 3.0175,-0.5375 4.2325,-0.605 2.435,-0.1475 3.93125,0.0738 3.92375,0.17625" />
    <path
       inkscape:connector-curvature="0"
       id="path1560"
       style="fill:#e2e2e2;fill-opacity:1;fill-rule:nonzero;stroke:none"
       d="m 351.60185,983.7757 c -0.14125,0 -0.20875,-1.74875 -0.4575,-4.55375 -0.25,-2.8 -0.7225,-6.665 -1.79875,-10.80375 -0.5475,-2.06375 -1.20375,-3.99125 -1.885,-5.71 -0.72,-1.7025 -1.43,-3.2125 -2.13375,-4.42375 -1.37125,-2.44 -2.45625,-3.8175 -2.335,-3.915 0.0725,-0.065 1.345,1.1775 2.89375,3.5825 0.7875,1.1925 1.575,2.70625 2.3525,4.43 0.74125,1.73625 1.435,3.7 1.99375,5.805 1.09625,4.22 1.47125,8.15875 1.55875,10.995 0.085,2.8425 -0.075,4.595 -0.18875,4.59375" />
    <path
       inkscape:connector-curvature="0"
       id="path1564"
       style="fill:#e2e2e2;fill-opacity:1;fill-rule:nonzero;stroke:none"
       d="m 340.88661,1011.0828 c -0.14875,-0.026 0.085,-1.5862 0.14375,-4.105 0.0375,-1.26 -0.0137,-2.7587 -0.16,-4.4113 -0.16875,-1.6525 -0.45125,-3.4587 -0.90375,-5.3187 -0.47125,-1.86 -1.06625,-3.5875 -1.6875,-5.1275 -0.64375,-1.53 -1.30125,-2.87875 -1.9225,-3.975 -1.23,-2.1975 -2.16625,-3.46625 -2.0475,-3.56 0.0775,-0.065 1.20125,1.0675 2.6025,3.2275 0.7075,1.075 1.44,2.42375 2.14375,3.975 0.67875,1.56 1.31625,3.33 1.8,5.23875 0.465,1.9125 0.73,3.77005 0.8575,5.47005 0.1025,1.6999 0.085,3.2349 -0.0362,4.5162 -0.2275,2.5637 -0.69125,4.0913 -0.79,4.07" />
    <path
       inkscape:connector-curvature="0"
       id="path1508"
       style="fill:#82cba8;fill-opacity:1;fill-rule:nonzero;stroke:none"
       d="m 45.50698,1025.3688 c -8.8025,4.6863 -20.6525,1.2725 -28.7225,-4.5838 -8.07125,-5.8587 -12.3725,-16.4912 -10.6475,-26.3137 1.19375,-6.79 5.00875,-13.2725 4.17375,-20.1175 -0.9925,-8.14125 -8.2875,-14.29 -9.93625,-22.325 -1.54,-7.5 2.09,-14.98125 3.305,-22.54125 0.92625,-5.76375 0.43875,-11.6475 0.59125,-17.48375 0.1525,-5.83625 1.04125,-11.8975 4.34,-16.71375 3.3,-4.81625 9.55125,-8 15.1075,-6.21 4.7675,1.535 7.845,6.16375 9.73875,10.80125 1.89375,4.63625 3.0275,9.645 5.77375,13.835 4.14875,6.33125 11.30625,9.855 17.70125,13.91 6.3925,4.055 12.7675,9.73625 13.46625,17.27375 0.7325,7.89 -5.0375,15.695 -2.94625,23.33625 1.30625,4.77125 5.365,8.18125 8.29875,12.1625 6.98625,9.4775 7.285,23.3675 0.71625,33.1362 -6.57125,9.77 -19.54875,14.7301 -30.96,11.8338" />
    <path
       inkscape:connector-curvature="0"
       id="path1512"
       style="fill:#ffffff;fill-opacity:1;fill-rule:nonzero;stroke:none"
       d="m 58.177855,1027.1852 c -0.3125,0.2375 -4.71375,-5.5513 -8.83125,-16.3575 -2.0925,-5.3688 -4.105,-11.91125 -6.2525,-19.14 -2.16,-7.235 -4.49,-15.2 -6.89125,-23.57375 -4.80375,-16.7525 -8.97625,-31.9675 -11.84,-43.02625 -2.86375,-11.05625 -4.41875,-17.9575 -3.98625,-18.08125 0.43125,-0.12375 2.76875,6.5525 6.19875,17.4475 3.43,10.895 7.95375,26.01 12.75625,42.7625 2.40125,8.375 4.64375,16.365 6.645,23.64375 1.99375,7.2875 3.75375,13.815 5.5375,19.1925 3.48375,10.7912 7.09875,16.8712 6.66375,17.1325" />
    <path
       inkscape:connector-curvature="0"
       id="path1516"
       style="fill:#ffffff;fill-opacity:1;fill-rule:nonzero;stroke:none"
       d="m 40.49348,977.17545 c -0.775,0.6225 -6.17875,-5.75625 -14.185,-11.7725 -2.01,-1.48875 -3.9925,-2.79375 -5.84125,-3.91375 -1.86875,-1.075 -3.58125,-2.01 -5.07375,-2.69625 -2.9625,-1.4125 -4.925,-2.155 -4.825,-2.63 0.075,-0.40375 2.2625,-0.45625 5.63125,0.47375 1.69,0.44625 3.62375,1.21625 5.7,2.21875 2.055,1.04375 4.225,2.36 6.35375,3.9375 4.245,3.17875 7.49375,6.7125 9.5625,9.4475 2.0725,2.74375 3.0175,4.66875 2.6775,4.935" />
    <path
       d="m 351.10648,1021.3514 c 0.68,-28.5537 -10.8875,-64.03245 -29.1125,-76.09245 -18.225,-12.06125 -41.36875,-7.14 -56.30875,11.975 -5.56625,7.12125 -10.7475,16.48625 -18.1875,17.695 -10.4225,1.6975 -18.83,-13.615 -29.30375,-14.47375 -13.97,-1.1425 -23.075,22.87 -36.88125,26.11 -10.23,2.4 -20.1325,-7.2625 -30.49625,-6.89 -7.58375,0.27375 -14.76125,5.92 -22.345,5.58875 -14.30125,-0.62875 -23.83875,-21.235 -37.0075,-29.1875 -13.05625,-7.88375 -28.95625,-1.93 -39.43875,11.65625 -10.4825,13.5875 -16.01625,33.5913 -17.6475,53.6188 l 316.72875,0 z"
       style="fill:#d0eadb;stroke:none;fill-opacity:1"
       id="path2362"
       inkscape:connector-curvature="0" />
    <path
       inkscape:connector-curvature="0"
       id="path2412"
       style="fill:url(#linearGradient2404);stroke:none"
       d="m 157.49398,837.9252 -5.695,186.4938 42.27375,0 -6.64625,-187.83005 -29.9325,1.33625 z" />
    <g
       clip-path="url(#clipPath2418)"
       id="g2416"
       transform="matrix(1.25,0,0,-1.25,-337.85977,1745.1527)">
      <g
         id="g2422">
        <g
           id="g2424">
          <path
             inkscape:connector-curvature="0"
             id="path2434"
             style="fill:url(#linearGradient2426);stroke:none"
             d="m 397.708,731.286 c 0,0 2.365,-27.327 11.458,-32.171 l 0,0 c 0,0 6.978,4.262 10.503,32.171 l 0,0 -21.961,0 z" />
        </g>
      </g>
    </g>
    <g
       clip-path="url(#clipPath2440)"
       id="g2438"
       transform="matrix(1.25,0,0,-1.25,-337.85977,1745.1527)">
      <g
         transform="translate(382.0195,788.6504)"
         id="g2444">
        <path
           inkscape:connector-curvature="0"
           id="path2446"
           style="fill:#4a4a4a;fill-opacity:1;fill-rule:nonzero;stroke:none"
           d="m 0,0 c 0,0 -14.684,-32.656 -14.865,-40.895 -0.184,-8.237 12.264,-41.553 14.461,-36.246 2.198,5.31 -2.656,21.342 8.335,28.158 l -5.067,23.219 c -1.043,4.019 -1.715,8.118 -2.01,12.258 C 0.574,-9.602 0.232,-4.494 0,0" />
      </g>
      <g
         transform="translate(435.2549,790.3428)"
         id="g2448">
        <path
           inkscape:connector-curvature="0"
           id="path2450"
           style="fill:#4a4a4a;fill-opacity:1;fill-rule:nonzero;stroke:none"
           d="m 0,0 c 0,0 14.682,-32.656 14.865,-40.895 0.184,-8.237 -12.266,-41.553 -14.463,-36.246 -2.195,5.31 1.843,20.488 -9.147,27.302 l 5.881,24.075 c 1.041,4.019 1.715,8.118 2.01,12.258 C -0.576,-9.602 -0.232,-4.494 0,0" />
      </g>
    </g>
    <g
       clip-path="url(#clipPath2456)"
       id="g2454"
       transform="matrix(1.25,0,0,-1.25,-337.85977,1745.1527)">
      <g
         transform="translate(403.5439,843.6221)"
         id="g2460">
        <path
           inkscape:connector-curvature="0"
           id="path2462"
           style="fill:#c9de7d;fill-opacity:1;fill-rule:nonzero;stroke:none"
           d="m 0,0 c -8.657,-8.015 -23.59,-27.786 -22.216,-68.083 0.089,-2.593 0.473,-5.176 1.124,-7.688 l 9.479,-36.565 32.713,0 c 0,0 8.363,30.091 10.109,37.769 4.462,19.595 -1.872,56.378 -18.822,74.272 C 9.076,3.2 3.533,3.271 0,0" />
      </g>
      <g
         transform="translate(394.0879,832.0918)"
         id="g2464">
        <path
           inkscape:connector-curvature="0"
           id="path2466"
           style="fill:#4a4a4a;fill-opacity:1;fill-rule:nonzero;stroke:none"
           d="M 0,0 29.932,0 31.872,17.855 7.27,19.538 -7.45,15.121 0,0 Z" />
      </g>
      <g
         transform="translate(407.5752,776.0986)"
         id="g2468">
        <path
           inkscape:connector-curvature="0"
           id="path2470"
           style="fill:#a5d27f;fill-opacity:1;fill-rule:nonzero;stroke:none"
           d="m 0,0 c -2.979,-18.923 -7.775,-34.605 -15.645,-44.813 l 13.265,0 L 0,0 Z" />
      </g>
      <g
         transform="translate(434.2158,802.7471)"
         id="g2472">
        <path
           inkscape:connector-curvature="0"
           id="path2474"
           style="fill:#a5d27f;fill-opacity:1;fill-rule:nonzero;stroke:none"
           d="m 0,0 c 0,0 -2.605,-56.431 -17.748,-71.461 l 8.176,0 c 0,0 17.733,46.037 9.572,71.461" />
      </g>
    </g>
    <path
       inkscape:connector-curvature="0"
       id="path2486"
       style="fill:#d0eadb;fill-opacity:1;fill-rule:nonzero;stroke:none"
       d="m 206.11123,747.76495 c -0.02,0.24625 -3.73,0.15375 -9.71875,-0.0175 -5.98875,-0.1725 -14.2575,-0.38375 -23.38875,-0.4 -9.13375,-0.01 -17.405,0.18 -23.3925,0.3375 -5.98875,0.155 -9.69875,0.23625 -9.7175,-0.009 -0.0188,-0.22625 3.665,-0.7375 9.65625,-1.20375 5.98875,-0.46875 14.285,-0.85 23.45625,-0.84125 9.16875,0.0163 17.4625,0.42125 23.45,0.90625 5.99,0.48125 9.67125,1.00125 9.655,1.2275" />
    <path
       inkscape:connector-curvature="0"
       id="path2490"
       style="fill:#d0eadb;fill-opacity:1;fill-rule:nonzero;stroke:none"
       d="m 207.3136,753.1447 c -0.0263,0.24375 -3.83,0.0725 -9.9725,-0.2575 -6.14,-0.3325 -14.61875,-0.78625 -23.98875,-1.1275 -9.3725,-0.3375 -17.86125,-0.49875 -24.01125,-0.6125 -6.1475,-0.11375 -9.955,-0.21625 -9.9625,-0.4625 -0.005,-0.2275 3.79625,-0.55375 9.955,-0.74875 6.16,-0.19875 14.67875,-0.23 24.0825,0.10875 9.3975,0.3425 17.89,0.99125 24.02,1.63125 6.13125,0.6425 9.89875,1.24125 9.8775,1.46875" />
    <g
       id="g2494"
       transform="matrix(1.25,0,0,-1.25,-337.85977,1745.1527)" />
    <g
       id="g2500"
       transform="matrix(1.25,0,0,-1.25,-337.85977,1745.1527)">
      <g
         style="opacity:0.41999799"
         id="g2502"
         clip-path="url(#clipPath2496)">
        <g
           id="g2504"
           transform="translate(426.126,732.7666)">
          <path
             inkscape:connector-curvature="0"
             id="path2506"
             style="fill:#3c3352;fill-opacity:1;fill-rule:nonzero;stroke:none"
             d="m 0,0 c -0.006,-0.379 -7.76,-0.578 -17.317,-0.444 -9.564,0.134 -17.307,0.549 -17.301,0.928 0.006,0.38 7.758,0.578 17.319,0.445 C -7.739,0.795 0.006,0.379 0,0" />
        </g>
      </g>
    </g>
    <g
       id="g2510"
       transform="matrix(1.25,0,0,-1.25,-337.85977,1745.1527)" />
    <g
       id="g2516"
       transform="matrix(1.25,0,0,-1.25,-337.85977,1745.1527)">
      <g
         style="opacity:0.41999799"
         id="g2518"
         clip-path="url(#clipPath2512)">
        <g
           id="g2520"
           transform="translate(425.6279,735.8457)">
          <path
             inkscape:connector-curvature="0"
             id="path2522"
             style="fill:#3c3352;fill-opacity:1;fill-rule:nonzero;stroke:none"
             d="m 0,0 c 0,-0.38 -7.937,-0.65 -17.728,-0.605 -9.789,0.045 -17.723,0.39 -17.721,0.769 0.002,0.379 7.937,0.649 17.729,0.604 C -7.933,0.722 0.002,0.378 0,0" />
        </g>
      </g>
    </g>
    <path
       inkscape:connector-curvature="0"
       id="path2526"
       style="fill:#a5d27f;fill-opacity:1;fill-rule:nonzero;stroke:none"
       d="m 187.7261,753.01283 c -0.82125,8.02875 -7.99875,13.87125 -16.02625,13.0475 -8.02875,-0.8225 -13.8725,-7.99875 -13.05,-16.02625 0.82375,-8.03 8,-13.87125 16.02875,-13.04875 8.02875,0.82375 13.87,7.9975 13.0475,16.0275" />
    <path
       inkscape:connector-curvature="0"
       id="path2530"
       style="fill:#ffffff;fill-opacity:1;fill-rule:nonzero;stroke:none"
       d="m 188.80035,750.63608 c -0.82125,8.03 -7.99875,13.87125 -16.02875,13.0475 -8.02625,-0.8225 -13.87,-7.9975 -13.0475,-16.02625 0.82125,-8.03 8,-13.87 16.02875,-13.0475 8.02625,0.8225 13.87125,7.99875 13.0475,16.02625" />
    <path
       inkscape:connector-curvature="0"
       id="path2534"
       style="fill:#ffffff;fill-opacity:1;fill-rule:nonzero;stroke:none"
       d="m 153.75035,773.86858 c 0,0.605 -0.49,1.09625 -1.095,1.09625 -0.60375,0 -1.095,-0.49125 -1.095,-1.09625 0,-0.60375 0.49125,-1.095 1.095,-1.095 0.605,0 1.095,0.49125 1.095,1.095" />
    <path
       inkscape:connector-curvature="0"
       id="path2538"
       style="fill:#ffffff;fill-opacity:1;fill-rule:nonzero;stroke:none"
       d="m 153.75035,777.08758 c 0,0.60375 -0.49,1.095 -1.095,1.095 -0.60375,0 -1.095,-0.49125 -1.095,-1.095 0,-0.605 0.49125,-1.09625 1.095,-1.09625 0.605,0 1.095,0.49125 1.095,1.09625" />
    <path
       inkscape:connector-curvature="0"
       id="path2542"
       style="fill:#ffffff;fill-opacity:1;fill-rule:nonzero;stroke:none"
       d="m 153.75035,780.62758 c 0,0.60625 -0.49,1.09625 -1.095,1.09625 -0.60375,0 -1.095,-0.49 -1.095,-1.09625 0,-0.60375 0.49125,-1.095 1.095,-1.095 0.605,0 1.095,0.49125 1.095,1.095" />
    <path
       inkscape:connector-curvature="0"
       id="path2546"
       style="fill:#4a4a4a;fill-opacity:1;fill-rule:nonzero;stroke:none"
       d="m 173.68935,773.94058 c 0,0 -5.975,0.915 -5.9675,29.29 0.006,34.5525 1.82875,52.6825 4.80375,52.4275 2.975,-0.255 12.62375,-83.31875 1.16375,-81.7175" />
    <g
       id="g2550"
       transform="matrix(1.25,0,0,-1.25,-337.85977,1745.1527)" />
    <g
       id="g2556"
       transform="matrix(1.25,0,0,-1.25,-337.85977,1745.1527)">
      <g
         style="opacity:0.41999799"
         id="g2558"
         clip-path="url(#clipPath2552)">
        <g
           id="g2560"
           transform="translate(416.6328,787.3477)">
          <path
             inkscape:connector-curvature="0"
             id="path2562"
             style="fill:#d0eadb;fill-opacity:1;fill-rule:nonzero;stroke:none"
             d="m 0,0 c 0.103,-0.104 -0.949,-1.288 -3.301,-2.092 -2.28,-0.807 -6.019,-1.004 -9.38,0.974 -3.341,2.012 -4.952,5.391 -5.33,7.782 -0.416,2.448 0.123,3.938 0.264,3.898 0.228,-0.021 0.063,-1.497 0.682,-3.682 0.582,-2.151 2.169,-5.068 5.086,-6.818 2.93,-1.728 6.25,-1.734 8.417,-1.219 C -1.345,-0.658 -0.126,0.19 0,0" />
        </g>
      </g>
    </g>
    <path
       inkscape:connector-curvature="0"
       id="path2578"
       style="fill:#d3e27c;fill-opacity:1;fill-rule:nonzero;stroke:none"
       d="m 262.42098,994.61558 -3.4575,-35.56125 -4.445,-38.03 3.4575,-0.49375 7.9025,36.055 12.3475,0.9875 12.84125,-36.54875 3.4575,0.49375 -9.38375,39.0175 0.4925,33.0925 -23.2125,0.9875 z" />
    <path
       inkscape:connector-curvature="0"
       id="path2582"
       style="fill:#f8f6f0;fill-opacity:1;fill-rule:nonzero;stroke:none"
       d="m 266.81548,946.03157 c -0.9325,3.40875 0.54,8.8775 3.9475,9.81 3.40875,0.93375 7.46125,-3.02125 8.395,-6.43 0.9325,-3.4075 -1.0725,-6.9275 -4.48125,-7.86125 -3.4075,-0.93375 -6.9275,1.0725 -7.86125,4.48125" />
    <path
       inkscape:connector-curvature="0"
       id="path2586"
       style="fill:#4a4a4a;fill-opacity:1;fill-rule:nonzero;stroke:none"
       d="m 271.37235,944.06383 c -0.69875,-0.19 -1.67375,-0.66875 -2.045,-1.325 -0.035,-0.0612 -0.0513,-0.12 -0.0713,-0.18 1.51625,-1.09375 3.4775,-1.54125 5.42125,-1.00875 3.4075,0.93375 5.41375,4.45375 4.48125,7.86125 -0.6675,2.43375 -2.925,5.13625 -5.4025,6.14875 0.0437,-0.6875 0.21125,-1.36625 0.3875,-2.03625 0.70625,-2.69375 1.4925,-5.3675 2.3575,-8.01625 -1.74375,-0.34625 -3.46,-0.83 -5.12875,-1.44375" />
    <path
       inkscape:connector-curvature="0"
       id="path2590"
       style="fill:#f8f6f0;fill-opacity:1;fill-rule:nonzero;stroke:none"
       d="m 275.35435,949.27508 c 0.4625,-0.3375 1.09375,-0.49 1.62,-0.265 0.1225,0.0525 0.23625,0.125 0.33,0.21875 0.255,0.25375 0.32875,0.6425 0.2975,1.00125 -0.0863,0.98875 -0.89875,1.81875 -1.8475,2.11125 -0.27,0.0838 -0.555,0.13 -0.83375,0.0875 -0.2775,-0.0425 -0.54875,-0.18 -0.71125,-0.41125 -0.59625,-0.85 0.48125,-2.2575 1.145,-2.7425" />
    <path
       inkscape:connector-curvature="0"
       id="path2594"
       style="fill:#757475;fill-opacity:1;fill-rule:nonzero;stroke:none"
       d="m 285.63385,993.62808 -3.42625,54.54372 -3.77375,0 -3.20375,-54.10122 -3.37,0.14375 -2.06,55.29127 -2.91125,-0.067 -4.4675,-54.82252 -0.6575,-6.75375 23.79,0.31 0.08,5.45625 z" />
    <path
       inkscape:connector-curvature="0"
       id="path2598"
       style="fill:#757475;fill-opacity:1;fill-rule:nonzero;stroke:none"
       d="m 282.20735,1048.1715 8.2975,0.9137 -0.30125,1.2863 -12.15,0 0.38,-2.2 3.77375,0 z" />
    <path
       inkscape:connector-curvature="0"
       id="path2602"
       style="fill:#757475;fill-opacity:1;fill-rule:nonzero;stroke:none"
       d="m 269.80011,1049.5057 0,1.5487 -11.39625,0.4313 0,-1.4262 8.485,-0.6213 2.91125,0.067 z" />
    <path
       inkscape:connector-curvature="0"
       id="path2606"
       style="fill:#4a4a4a;fill-opacity:1;fill-rule:nonzero;stroke:none"
       d="m 272.93123,950.65445 c -2.07625,0.22625 -3.72625,-1.8675 -5.7975,-2.13 -0.13,-0.0163 -0.2675,-0.025 -0.385,0.0312 -0.15375,0.0712 -0.2425,0.2325 -0.31875,0.38375 l -0.7875,1.53375 c -0.26875,0.5225 -0.54,1.05375 -0.6575,1.62875 -0.14125,0.69 -0.0525,1.40375 0.0625,2.0975 0.0937,0.54875 0.205,1.1025 0.4525,1.6025 0.44,0.89375 1.28625,1.545 2.22125,1.8875 0.935,0.34125 1.955,0.395 2.94625,0.30625 0.6775,-0.06 1.35875,-0.18625 1.96625,-0.4925 1.3425,-0.6775 2.16,-2.26875 1.93,-3.755 -0.0575,-0.3675 -0.17125,-0.73375 -0.1325,-1.10375 0.0387,-0.36125 0.2225,-0.68875 0.40125,-1.005 0.2025,-0.35875 1.5725,-2.155 0.5,-2.16375 -0.32625,-0.004 -0.7975,0.55375 -1.0825,0.71875 -0.4075,0.235 -0.84875,0.40875 -1.31875,0.46" />
    <path
       inkscape:connector-curvature="0"
       id="path2610"
       style="fill:#f8f6f0;fill-opacity:1;fill-rule:nonzero;stroke:none"
       d="m 286.64098,933.6232 4.9725,0 2.91125,-12.105 -3.4575,-0.49375 -4.42625,12.59875 z" />
    <path
       inkscape:connector-curvature="0"
       id="path2614"
       style="fill:#f8f6f0;fill-opacity:1;fill-rule:nonzero;stroke:none"
       d="m 257.97635,920.53108 -3.45875,0.49375 1.47375,12.59875 4.855,0 -2.87,-13.0925 z" />
    <path
       inkscape:connector-curvature="0"
       id="path2618"
       style="fill:#61bf83;fill-opacity:1;fill-rule:nonzero;stroke:none"
       d="m 287.74198,880.95108 -25.81375,0 c -4.41125,0 -7.985,3.575 -7.985,7.98625 l 0,25.81375 c 0,4.40875 3.57375,7.985 7.985,7.985 l 25.81375,0 c 4.40875,0 7.985,-3.57625 7.985,-7.985 l 0,-25.81375 c 0,-4.41125 -3.57625,-7.98625 -7.985,-7.98625" />
    <path
       inkscape:connector-curvature="0"
       id="path2622"
       style="fill:#f8f6f0;fill-opacity:1;fill-rule:nonzero;stroke:none"
       d="m 258.77473,919.0492 c 0,1.6375 -1.3275,2.9625 -2.96375,2.9625 -1.6375,0 -2.9625,-1.325 -2.9625,-2.9625 0,-1.6375 1.325,-2.96375 2.9625,-2.96375 1.63625,0 2.96375,1.32625 2.96375,2.96375" />
    <path
       inkscape:connector-curvature="0"
       id="path2626"
       style="fill:#f8f6f0;fill-opacity:1;fill-rule:nonzero;stroke:none"
       d="m 294.55473,919.88533 c 0,1.6375 -1.3275,2.96375 -2.9625,2.96375 -1.6375,0 -2.96375,-1.32625 -2.96375,-2.96375 0,-1.63625 1.32625,-2.9625 2.96375,-2.9625 1.635,0 2.9625,1.32625 2.9625,2.9625" />
    <text
       style="font-variant:normal;font-weight:bold;font-stretch:normal;font-size:15.39587498px;font-family:'Product Sans';-inkscape-font-specification:ProductSans-Bold;writing-mode:lr-tb;fill:#ffffff;fill-opacity:1;fill-rule:nonzero;stroke:none"
       id="text2692"
       x="260.68399"
       y="906.16833">
      <tspan
         x="260.68399 264.82547 275.97208"
         y="906.16833"
         sodipodi:role="line"
         id="tspan2694">ICO</tspan>
    </text>
    <path
       inkscape:connector-curvature="0"
       id="path2706"
       style="fill:#ffffff;fill-opacity:1;fill-rule:nonzero;stroke:#ffffff;stroke-width:1.25;stroke-linecap:butt;stroke-linejoin:miter;stroke-miterlimit:10;stroke-dasharray:none;stroke-opacity:1"
       d="m 290.04673,888.28745 -30.4325,25.27625" />
    <path
       inkscape:connector-curvature="0"
       id="path2710"
       style="fill:#ffffff;fill-opacity:1;fill-rule:nonzero;stroke:#ffffff;stroke-width:1.25;stroke-linecap:butt;stroke-linejoin:miter;stroke-miterlimit:10;stroke-dasharray:none;stroke-opacity:1"
       d="m 290.89998,913.56333 -30.84125,-26.5975" />
    <path
       inkscape:connector-curvature="0"
       id="path2714"
       style="fill:#d3e27c;fill-opacity:1;fill-rule:nonzero;stroke:none"
       d="m 108.89435,995.49207 3.4575,-35.56 4.44375,-38.03 -3.45625,-0.495 -7.90375,36.055 -12.3475,0.9875 -12.84,-36.5475 -3.45875,0.4925 9.385,39.01875 -0.49375,33.09125 23.21375,0.9875 z" />
    <path
       inkscape:connector-curvature="0"
       id="path2718"
       style="fill:#f8f6f0;fill-opacity:1;fill-rule:nonzero;stroke:none"
       d="m 104.49985,946.90933 c 0.9325,3.40875 -0.54,8.87625 -3.9475,9.81 -3.40875,0.9325 -7.46125,-3.0225 -8.395,-6.43125 -0.93375,-3.4075 1.0725,-6.9275 4.48125,-7.86 3.4075,-0.93375 6.9275,1.0725 7.86125,4.48125" />
    <path
       inkscape:connector-curvature="0"
       id="path2722"
       style="fill:#4a4a4a;fill-opacity:1;fill-rule:nonzero;stroke:none"
       d="m 99.94298,944.94158 c 0.6975,-0.19125 1.6725,-0.66875 2.045,-1.32625 0.035,-0.0612 0.05,-0.12 0.07,-0.17875 -1.515,-1.09375 -3.4775,-1.54125 -5.42,-1.00875 -3.4075,0.9325 -5.415,4.4525 -4.48125,7.86 0.6675,2.435 2.925,5.1375 5.4025,6.14875 -0.045,-0.68625 -0.2125,-1.365 -0.3875,-2.035 -0.70625,-2.69375 -1.49375,-5.36875 -2.35875,-8.01625 1.745,-0.3475 3.46125,-0.83125 5.13,-1.44375" />
    <path
       inkscape:connector-curvature="0"
       id="path2726"
       style="fill:#f8f6f0;fill-opacity:1;fill-rule:nonzero;stroke:none"
       d="m 95.96098,950.1527 c -0.4625,-0.33875 -1.09375,-0.49125 -1.62,-0.265 -0.1225,0.0525 -0.23625,0.125 -0.33125,0.2175 -0.25375,0.255 -0.3275,0.64375 -0.2975,1.00125 0.08625,0.98875 0.9,1.81875 1.84875,2.1125 0.26875,0.0838 0.55375,0.13 0.8325,0.0863 0.27875,-0.0412 0.55,-0.18 0.7125,-0.41125 0.59625,-0.85 -0.48125,-2.2575 -1.145,-2.74125" />
    <path
       inkscape:connector-curvature="0"
       id="path2730"
       style="fill:#757475;fill-opacity:1;fill-rule:nonzero;stroke:none"
       d="m 85.68023,994.50445 3.42625,54.54375 3.775,0 3.20375,-54.10125 3.37,0.14375 2.06,55.2913 2.91125,-0.068 4.4675,-54.82255 0.65625,-6.7525 -23.78875,0.30875 -0.08125,5.45625 z" />
    <path
       inkscape:connector-curvature="0"
       id="path2734"
       style="fill:#757475;fill-opacity:1;fill-rule:nonzero;stroke:none"
       d="m 89.10673,1049.048 -8.29625,0.9138 0.30125,1.2875 12.14875,0 -0.37875,-2.2013 -3.775,0 z" />
    <path
       inkscape:connector-curvature="0"
       id="path2738"
       style="fill:#757475;fill-opacity:1;fill-rule:nonzero;stroke:none"
       d="m 101.51523,1050.3822 0,1.5488 11.39625,0.4312 0,-1.425 -8.485,-0.6225 -2.91125,0.068 z" />
    <path
       inkscape:connector-curvature="0"
       id="path2742"
       style="fill:#4a4a4a;fill-opacity:1;fill-rule:nonzero;stroke:none"
       d="m 98.384105,951.53208 c 2.076255,0.225 3.726255,-1.8675 5.797505,-2.13 0.12875,-0.0175 0.2675,-0.025 0.385,0.03 0.15375,0.0725 0.2425,0.23375 0.31875,0.385 l 0.7875,1.53375 c 0.26875,0.5225 0.54,1.05375 0.65625,1.62875 0.1425,0.68875 0.0537,1.4025 -0.0613,2.09625 -0.0937,0.54875 -0.205,1.10375 -0.4525,1.6025 -0.44,0.89375 -1.28625,1.54625 -2.22125,1.88875 -0.935,0.34125 -1.955,0.39375 -2.9475,0.30625 -0.676255,-0.06 -1.357505,-0.1875 -1.965005,-0.49375 -1.34375,-0.67625 -2.16,-2.26875 -1.93,-3.755 0.05625,-0.36625 0.17125,-0.7325 0.13125,-1.1025 -0.0375,-0.36125 -0.22125,-0.68875 -0.4,-1.005 -0.20375,-0.36 -1.5725,-2.15625 -0.5,-2.165 0.325,-0.004 0.7975,0.55375 1.0825,0.71875 0.4075,0.235 0.84875,0.41 1.31875,0.46125" />
    <path
       inkscape:connector-curvature="0"
       id="path2746"
       style="fill:#f8f6f0;fill-opacity:1;fill-rule:nonzero;stroke:none"
       d="m 84.674355,934.50083 -4.97375,0 -2.91,-12.10625 3.4575,-0.4925 4.42625,12.59875 z" />
    <path
       inkscape:connector-curvature="0"
       id="path2750"
       style="fill:#f8f6f0;fill-opacity:1;fill-rule:nonzero;stroke:none"
       d="m 113.33898,921.40758 3.4575,0.495 -1.4725,12.59875 -4.855,0 2.87,-13.09375 z" />
    <path
       inkscape:connector-curvature="0"
       id="path2754"
       style="fill:#61bf83;fill-opacity:1;fill-rule:nonzero;stroke:none"
       d="m 73.46348,881.8287 49.77625,0 c 2.61375,0 4.73125,2.1175 4.73125,4.73125 l 0,32.32125 c 0,2.6125 -2.1175,4.73125 -4.73125,4.73125 l -49.77625,0 c -2.61375,0 -4.7325,-2.11875 -4.7325,-4.73125 l 0,-32.32125 c 0,-2.61375 2.11875,-4.73125 4.7325,-4.73125" />
    <path
       inkscape:connector-curvature="0"
       id="path2758"
       style="fill:#f8f6f0;fill-opacity:1;fill-rule:nonzero;stroke:none"
       d="m 112.5406,919.9257 c 0,1.6375 1.3275,2.96375 2.96375,2.96375 1.63625,0 2.9625,-1.32625 2.9625,-2.96375 0,-1.63625 -1.32625,-2.9625 -2.9625,-2.9625 -1.63625,0 -2.96375,1.32625 -2.96375,2.9625" />
    <path
       inkscape:connector-curvature="0"
       id="path2762"
       style="fill:#f8f6f0;fill-opacity:1;fill-rule:nonzero;stroke:none"
       d="m 76.759355,920.76308 c 0,1.6375 1.3275,2.9625 2.96375,2.9625 1.6375,0 2.96375,-1.325 2.96375,-2.9625 0,-1.6375 -1.32625,-2.96375 -2.96375,-2.96375 -1.63625,0 -2.96375,1.32625 -2.96375,2.96375" />
    <text
       style="font-variant:normal;font-weight:normal;font-stretch:normal;font-size:12.42812538px;font-family:'Product Sans';-inkscape-font-specification:ProductSans-Regular;writing-mode:lr-tb;fill:#ffffff;fill-opacity:1;fill-rule:nonzero;stroke:none"
       id="text2764"
       x="76.650726"
       y="906.42596">
      <tspan
         x="76.650726 83.697479 87.836044 94.49752 105.08628 107.82047 114.55651"
         y="906.42596"
         sodipodi:role="line"
         id="tspan2766">premine</tspan>
    </text>
    <path
       inkscape:connector-curvature="0"
       id="path2778"
       style="fill:#ffffff;fill-opacity:1;fill-rule:nonzero;stroke:#ffffff;stroke-width:1.25;stroke-linecap:butt;stroke-linejoin:miter;stroke-miterlimit:10;stroke-dasharray:none;stroke-opacity:1"
       d="m 76.811855,892.40733 42.767495,21.47875" />
    <path
       inkscape:connector-curvature="0"
       id="path2782"
       style="fill:#ffffff;fill-opacity:1;fill-rule:nonzero;stroke:#ffffff;stroke-width:1.25;stroke-linecap:butt;stroke-linejoin:miter;stroke-miterlimit:10;stroke-dasharray:none;stroke-opacity:1"
       d="m 119.06648,891.44183 -41.7425,23.41" />
  </g>
</svg>
