<?xml version="1.0" encoding="UTF-8" standalone="no"?>
<!-- Created with Inkscape (http://www.inkscape.org/) -->

<svg
   xmlns:dc="http://purl.org/dc/elements/1.1/"
   xmlns:cc="http://creativecommons.org/ns#"
   xmlns:rdf="http://www.w3.org/1999/02/22-rdf-syntax-ns#"
   xmlns:svg="http://www.w3.org/2000/svg"
   xmlns="http://www.w3.org/2000/svg"
   xmlns:sodipodi="http://sodipodi.sourceforge.net/DTD/sodipodi-0.dtd"
   xmlns:inkscape="http://www.inkscape.org/namespaces/inkscape"
   width="232.399"
   height="96.194"
   viewBox="0 0 232.39901 96.194002"
   id="svg2"
   version="1.1"
   inkscape:version="0.91 r13725"
   sodipodi:docname="logo-full.svg">
  <defs
     id="defs4">
    <clipPath
       clipPathUnits="userSpaceOnUse"
       id="clipPath80">
      <path
         d="m 471.224,2000.53 47.741,0 0,-10.23 -47.741,0 0,10.23 z"
         id="path82"
         inkscape:connector-curvature="0" />
    </clipPath>
    <clipPath
       clipPathUnits="userSpaceOnUse"
       id="clipPath96">
      <path
         d="m 524.665,1986.71 83.839,0 0,-17.96 -83.839,0 0,17.96 z"
         id="path98"
         inkscape:connector-curvature="0" />
    </clipPath>
    <clipPath
       clipPathUnits="userSpaceOnUse"
       id="clipPath2632">
      <path
         d="m -39.2676,2045.85 176.2716,0 0,-37.78 -176.2716,0 0,37.78 z"
         id="path2634"
         inkscape:connector-curvature="0" />
    </clipPath>
    <clipPath
       clipPathUnits="userSpaceOnUse"
       id="clipPath2648">
      <path
         d="m 448.711,2119.59 117.353,0 0,-25.15 -117.353,0 0,25.15 z"
         id="path2650"
         inkscape:connector-curvature="0" />
    </clipPath>
    <clipPath
       clipPathUnits="userSpaceOnUse"
       id="clipPath2664">
      <path
         d="m 78.7056,2168.26 117.3534,0 0,-25.15 -117.3534,0 0,25.15 z"
         id="path2666"
         inkscape:connector-curvature="0" />
    </clipPath>
    <clipPath
       clipPathUnits="userSpaceOnUse"
       id="clipPath2680">
      <path
         d="m 247.766,2056.98 59.502,0 0,-12.75 -59.502,0 0,12.75 z"
         id="path2682"
         inkscape:connector-curvature="0" />
    </clipPath>
  </defs>
  <sodipodi:namedview
     id="base"
     pagecolor="#ffffff"
     bordercolor="#666666"
     borderopacity="1.0"
     inkscape:pageopacity="0.0"
     inkscape:pageshadow="2"
     inkscape:zoom="0.7"
     inkscape:cx="203.16888"
     inkscape:cy="181.15826"
     inkscape:document-units="px"
     inkscape:current-layer="layer1"
     showgrid="false"
     units="px"
     inkscape:window-width="1920"
     inkscape:window-height="1056"
     inkscape:window-x="1920"
     inkscape:window-y="24"
     inkscape:window-maximized="1" />
  <metadata
     id="metadata7">
    <rdf:RDF>
      <cc:Work
         rdf:about="">
        <dc:format>image/svg+xml</dc:format>
        <dc:type
           rdf:resource="http://purl.org/dc/dcmitype/StillImage" />
        <dc:title></dc:title>
      </cc:Work>
    </rdf:RDF>
  </metadata>
  <g
     inkscape:label="Layer 1"
     inkscape:groupmode="layer"
     id="layer1"
     transform="translate(0,-956.16816)">
    <g
       id="g10707"
       transform="matrix(1.25,0,0,-1.25,-248.28699,3613.3072)">
      <g
         transform="translate(198.6294,2074.5112)"
         id="g3242">
        <path
           inkscape:connector-curvature="0"
           id="path3244"
           style="fill:#11a57a;fill-opacity:1;fill-rule:nonzero;stroke:none"
           d="m 0,0 23.24,-13.992 0,31.754 L 0,0 Z" />
      </g>
      <g
         transform="translate(234.4385,2125.7114)"
         id="g3246">
        <path
           inkscape:connector-curvature="0"
           id="path3248"
           style="fill:#60bf84;fill-opacity:1;fill-rule:nonzero;stroke:none"
           d="m 0,0 0,-30.567 -35.809,-20.633 0,31.042 L 0,0 Z" />
      </g>
      <g
         transform="translate(265.7417,2099.9556)"
         id="g3250">
        <path
           inkscape:connector-curvature="0"
           id="path3252"
           style="fill:#333333;fill-opacity:1;fill-rule:nonzero;stroke:none"
           d="m 0,0 -23.24,13.991 0,-31.753 L 0,0 Z" />
      </g>
      <g
         transform="translate(229.9331,2048.7559)"
         id="g3254">
        <path
           inkscape:connector-curvature="0"
           id="path3256"
           style="fill:#4a4a4a;fill-opacity:1;fill-rule:nonzero;stroke:none"
           d="M 0,0 0,30.567 35.809,51.2 35.809,20.157 0,0 Z" />
      </g>
      <g
         transform="translate(285.4863,2078.2925)"
         id="g3258">
        <path
           inkscape:connector-curvature="0"
           id="path3260"
           style="fill:#4a4a4a;fill-opacity:1;fill-rule:nonzero;stroke:none"
           d="m 0,0 c -1.142,0 -2.201,0.165 -3.178,0.494 -0.977,0.329 -1.828,0.823 -2.552,1.482 -0.725,0.658 -1.291,1.482 -1.696,2.47 -0.407,0.988 -0.61,2.14 -0.61,3.458 l 0,14.754 2.371,0 0,-14.59 c 0,-1.998 0.505,-3.49 1.516,-4.479 C -3.14,2.602 -1.757,2.107 0,2.107 c 1.734,0 3.112,0.495 4.133,1.482 1.021,0.989 1.532,2.481 1.532,4.479 l 0,14.59 2.371,0 0,-14.754 C 8.036,6.586 7.833,5.434 7.426,4.446 7.02,3.458 6.455,2.634 5.73,1.976 5.006,1.317 4.155,0.823 3.178,0.494 2.201,0.165 1.142,0 0,0" />
      </g>
      <g
         transform="translate(310.9766,2100.9502)"
         id="g3262">
        <path
           inkscape:connector-curvature="0"
           id="path3264"
           style="fill:#4a4a4a;fill-opacity:1;fill-rule:nonzero;stroke:none"
           d="m 0,0 7.607,0 c 1.054,0 1.965,-0.143 2.734,-0.429 0.768,-0.286 1.404,-0.682 1.91,-1.188 0.505,-0.506 0.884,-1.094 1.136,-1.765 0.252,-0.671 0.379,-1.381 0.379,-2.129 0,-1.122 -0.243,-2.068 -0.725,-2.838 -0.483,-0.77 -1.208,-1.309 -2.174,-1.617 1.449,-0.351 2.58,-1.041 3.393,-2.072 0.811,-1.03 1.219,-2.291 1.219,-3.781 0,-0.92 -0.144,-1.781 -0.429,-2.581 -0.285,-0.8 -0.725,-1.496 -1.318,-2.087 -0.592,-0.592 -1.334,-1.058 -2.222,-1.398 -0.89,-0.34 -1.927,-0.51 -3.113,-0.51 L 0,-22.395 0,0 Z m 7.771,-9.188 c 1.296,0 2.224,0.331 2.784,0.992 0.559,0.662 0.84,1.511 0.84,2.548 0,0.507 -0.072,0.976 -0.214,1.406 -0.144,0.43 -0.374,0.805 -0.692,1.125 -0.319,0.32 -0.724,0.568 -1.218,0.744 -0.495,0.177 -1.104,0.265 -1.829,0.265 l -5.071,0 0,-7.08 5.4,0 z m 0.461,-11.099 c 0.857,0 1.592,0.116 2.207,0.346 0.615,0.231 1.115,0.548 1.499,0.955 0.383,0.406 0.669,0.883 0.856,1.433 0.186,0.548 0.28,1.152 0.28,1.811 0,1.317 -0.401,2.404 -1.202,3.261 -0.802,0.856 -2.059,1.284 -3.77,1.284 l -5.731,0 0,-9.09 5.861,0 z" />
      </g>
      <path
         inkscape:connector-curvature="0"
         id="path3266"
         style="fill:#4a4a4a;fill-opacity:1;fill-rule:nonzero;stroke:none"
         d="m 342.657,2100.95 2.404,0 0,-22.395 -2.404,0 0,22.395 z" />
      <g
         transform="translate(374.207,2073.2534)"
         id="g3268">
        <path
           inkscape:connector-curvature="0"
           id="path3270"
           style="fill:#4a4a4a;fill-opacity:1;fill-rule:nonzero;stroke:none"
           d="m 0,0 -2.305,0 0,5.072 c -1.449,0.132 -2.805,0.505 -4.067,1.119 -1.263,0.615 -2.36,1.422 -3.293,2.421 -0.934,0.999 -1.669,2.168 -2.207,3.508 -0.538,1.338 -0.807,2.799 -0.807,4.38 0,1.69 0.302,3.238 0.906,4.643 0.603,1.405 1.421,2.612 2.454,3.623 1.031,1.009 2.25,1.795 3.655,2.355 1.404,0.559 2.898,0.839 4.478,0.839 1.603,0 3.102,-0.28 4.497,-0.839 1.393,-0.56 2.612,-1.346 3.655,-2.355 1.043,-1.011 1.865,-2.218 2.47,-3.623 0.603,-1.405 0.906,-2.953 0.906,-4.643 0,-1.581 -0.269,-3.042 -0.805,-4.38 C 9.001,10.78 8.268,9.611 7.337,8.612 6.407,7.613 5.312,6.812 4.055,6.208 2.796,5.604 1.445,5.236 0,5.104 L 0,0 Z m -2.305,11.922 2.305,0 0,-4.743 c 1.159,0.132 2.22,0.456 3.182,0.972 0.962,0.516 1.792,1.185 2.492,2.009 0.699,0.823 1.24,1.773 1.623,2.849 0.383,1.075 0.574,2.25 0.574,3.524 0,1.339 -0.225,2.573 -0.675,3.704 -0.45,1.131 -1.082,2.113 -1.893,2.948 -0.813,0.834 -1.768,1.487 -2.865,1.96 -1.099,0.471 -2.306,0.708 -3.624,0.708 -1.294,0 -2.497,-0.237 -3.605,-0.708 -1.109,-0.473 -2.064,-1.126 -2.865,-1.96 -0.802,-0.835 -1.428,-1.817 -1.877,-2.948 -0.451,-1.131 -0.676,-2.365 -0.676,-3.704 0,-1.274 0.198,-2.449 0.593,-3.524 0.395,-1.076 0.938,-2.026 1.631,-2.849 0.691,-0.824 1.519,-1.493 2.486,-2.009 0.966,-0.516 2.03,-0.84 3.194,-0.972 l 0,4.743 z" />
      </g>
    </g>
  </g>
</svg>
